<svg xmlns="http://www.w3.org/2000/svg" viewBox="0 0 512 512" role="img" aria-labelledby="title desc">
  <title id="title">EnerPrice icon</title>
  <desc id="desc">A turquoise and green energy price ring with a white house, price line, and plug.</desc>
  <defs>
    <linearGradient id="enerpriceGradient" x1="82" y1="382" x2="438" y2="116" gradientUnits="userSpaceOnUse">
      <stop offset="0" stop-color="#00BFD5"/>
      <stop offset="0.5" stop-color="#00D4C5"/>
      <stop offset="1" stop-color="#8BEA2E"/>
    </linearGradient>
    <linearGradient id="plugGradient" x1="308" y1="432" x2="378" y2="320" gradientUnits="userSpaceOnUse">
      <stop offset="0" stop-color="#00C2A8"/>
      <stop offset="1" stop-color="#7ED957"/>
    </linearGradient>
    <radialGradient id="background" cx="50%" cy="45%" r="72%">
      <stop offset="0" stop-color="#071425"/>
      <stop offset="1" stop-color="#020817"/>
    </radialGradient>
  </defs>

  <path d="M0 0h512v512H0Z" fill="url(#background)"/>

  <path
    d="M324.5 425.7A183 183 0 1 1 437.6 233.7"
    fill="none"
    stroke="url(#enerpriceGradient)"
    stroke-width="21"
    stroke-linecap="butt"
  />

  <path
    d="M425 217C451 218 458 238 446 263C438 280 432 326 406 398L405 312C405 289 384 281 384 255C384 233 399 219 425 217Z"
    fill="url(#enerpriceGradient)"
  />

  <path
    d="M166 292V220L260 128L354 220"
    fill="none"
    stroke="#FFFFFF"
    stroke-width="20"
    stroke-linecap="round"
    stroke-linejoin="round"
  />

  <path
    d="M112 364L163 329L202 351L250 292L293 282L335 262L370 267"
    fill="none"
    stroke="#00CCD0"
    stroke-width="15"
    stroke-linecap="round"
    stroke-linejoin="round"
  />

  <circle cx="163" cy="329" r="17" fill="#061224" stroke="#00CCD0" stroke-width="12"/>
  <circle cx="250" cy="292" r="17" fill="#061224" stroke="#00CCD0" stroke-width="12"/>
  <circle cx="335" cy="262" r="17" fill="#061224" stroke="#00CCD0" stroke-width="12"/>

  <path
    d="M308 350V379C308 399 324 415 344 415C364 415 380 399 380 379V350Z"
    fill="url(#plugGradient)"
  />
  <path
    d="M325 326V358M367 326V358"
    fill="none"
    stroke="url(#plugGradient)"
    stroke-width="14"
    stroke-linecap="round"
  />
  <path
    d="M344 415C344 431 337 440 324 446"
    fill="none"
    stroke="url(#plugGradient)"
    stroke-width="14"
    stroke-linecap="round"
  />
</svg>
